<svg width="16" height="16" viewBox="0 0 16 16" fill="none" xmlns="http://www.w3.org/2000/svg">
<style>
  path { fill: #000 }
  @media (prefers-color-scheme: dark) {
    path { fill: #fefefe }
  }
</style>
<path fill-rule="evenodd" clip-rule="evenodd" d="M1.50195 2.73884C1.50195 2.05264 2.05844 1.5 2.74246 1.5H13.6564C14.1827 1.5 14.4462 2.13629 14.0741 2.50842L11.7328 4.84967L11.6907 4.80704L11.6906 4.80692L11.6729 4.78899C11.5173 4.6311 11.3416 4.45291 11.1394 4.27357L13.0859 2.327H2.74246C2.513 2.327 2.32896 2.51155 2.32896 2.73884V7.77166C2.12934 7.87706 1.93989 8.0006 1.76149 8.14313C1.67106 8.21538 1.58458 8.29162 1.50195 8.37171V2.73884ZM4.24132 11.1716L1.92559 13.4874C1.55346 13.8595 1.81702 14.4958 2.34329 14.4958H13.2572C13.9412 14.4958 14.4977 13.9434 14.4977 13.2571V7.57431C14.4 7.67274 14.2968 7.76562 14.1878 7.8527C14.0245 7.98316 13.8519 8.09772 13.6707 8.19702V13.2571C13.6707 13.4843 13.4868 13.6688 13.2572 13.6688H2.91374L4.83665 11.7459C4.62337 11.5589 4.43931 11.3723 4.27706 11.2079L4.25865 11.1892L4.25841 11.189C4.25268 11.1832 4.24698 11.1774 4.24132 11.1716ZM7.89006 8.69245L8.71807 7.86445C8.47807 7.69025 8.26921 7.50496 8.08481 7.32814L7.26034 8.15261C7.49921 8.32875 7.70684 8.51533 7.89006 8.69245Z" />
<path fill-rule="evenodd" clip-rule="evenodd" d="M8.00014 3.8038C6.13331 3.8038 4.96684 4.73588 4.49993 6.60005C5.20003 5.66797 6.01671 5.3185 6.94999 5.55139C7.48247 5.68423 7.86324 6.07007 8.28435 6.49725C8.97072 7.19287 9.76519 7.9979 11.5001 7.9979C13.3666 7.9979 14.5334 7.06581 15 5.20193C14.3002 6.13401 13.4835 6.48347 12.5502 6.25031C12.0175 6.11747 11.6367 5.73163 11.2156 5.30472C10.5292 4.60856 9.73501 3.8038 8.00014 3.8038ZM4.49993 7.9979C2.63337 7.9979 1.46664 8.92998 1 10.7941C1.7001 9.86206 2.51678 9.5126 3.44979 9.74548C3.98254 9.87832 4.36331 10.2642 4.78441 10.6913C5.47079 11.387 6.26499 12.192 8.00014 12.192C9.86669 12.192 11.0334 11.2602 11.5001 9.39602C10.8 10.3281 9.98328 10.6776 9.05001 10.4447C8.51753 10.3116 8.13675 9.92572 7.71565 9.49882C7.02927 8.8032 6.23481 7.9979 4.49993 7.9979Z" />
</svg>
